PathFileType	4	(X/Y/Z)	/Users/itak/Documents/Research/Walk-IL/dataset/trc/00071_00006.trc
DataRate	CameraRate	NumFrames	NumMarkers	Units	OrigDataRate	OrigDataStartFrame	OrigNumFrames
100.000000	100.000000	4	53	mm	100.000000	182	729
Frame#	Time	RPSI			LPSI			L3			STRN			T10			C7			CLAV			RBAK			LBAK			LSHO			LUPA			LAEL			LAOL			LWTS			LWPS			LFRA			LIFD			LHPS			LHTS			RSHO			RUPA			RAEL			RAOL			RWTS			RWPS			RFRA			RIFD			RHTS			RHPS			RBHD			LFHD			RFHD			LBHD			LHIP			RHIP			RASI			LASI			LKNE			LTHI			LANK			LTIP			LTOE			LMT1			LMT5			LHEE			RKNE			RTHI			RANK			RTIP			RTOE			RMT1			RMT5			RHEE			
		X1	Y1	Z1	X2	Y2	Z2	X3	Y3	Z3	X4	Y4	Z4	X5	Y5	Z5	X6	Y6	Z6	X7	Y7	Z7	X8	Y8	Z8	X9	Y9	Z9	X10	Y10	Z10	X11	Y11	Z11	X12	Y12	Z12	X13	Y13	Z13	X14	Y14	Z14	X15	Y15	Z15	X16	Y16	Z16	X17	Y17	Z17	X18	Y18	Z18	X19	Y19	Z19	X20	Y20	Z20	X21	Y21	Z21	X22	Y22	Z22	X23	Y23	Z23	X24	Y24	Z24	X25	Y25	Z25	X26	Y26	Z26	X27	Y27	Z27	X28	Y28	Z28	X29	Y29	Z29	X30	Y30	Z30	X31	Y31	Z31	X32	Y32	Z32	X33	Y33	Z33	X34	Y34	Z34	X35	Y35	Z35	X36	Y36	Z36	X37	Y37	Z37	X38	Y38	Z38	X39	Y39	Z39	X40	Y40	Z40	X41	Y41	Z41	X42	Y42	Z42	X43	Y43	Z43	X44	Y44	Z44	X45	Y45	Z45	X46	Y46	Z46	X47	Y47	Z47	X48	Y48	Z48	X49	Y49	Z49	X50	Y50	Z50	X51	Y51	Z51	X52	Y52	Z52	X53	Y53	Z53	

183	1.82	-181.2445983886719	1016.93310546875	766.01953125	-314.1722412109375	1009.022644042969	880.7814331054688	-246.6148223876953	1075.426635742188	822.5557250976562	-408.5623168945312	1266.401489257812	624.5535278320312	-234.8226470947266	1208.531982421875	825.3893432617188	-271.6319885253906	1473.947265625	774.578369140625	-390.053466796875	1381.09423828125	645.4703369140625	-174.8786773681641	1335.719482421875	777.5195922851562	-326.75390625	1439.46240234375	859.2115478515625	-447.4809875488281	1443.94091796875	838.7481689453125	-479.1473388671875	1327.543579101562	922.6434936523438	-499.5019836425781	1119.21826171875	962.7003173828125	-399.0094909667969	1100.025146484375	926.620849609375	-546.160888671875	867.5499267578125	901.3773193359375	-524.636474609375	868.3309936523438	982.4301147460938	-519.2380981445312	1010.993591308594	976.3108520507812	-541.741455078125	684.162353515625	902.0142211914062	-550.945068359375	785.29638671875	973.7725830078125	-569.2516479492188	785.5198974609375	905.1986083984375	-183.4582824707031	1433.375610351562	613.9883422851562	-126.5982360839844	1365.661376953125	584.81689453125	-73.3968505859375	1102.349365234375	593.8291625976562	-159.0618896484375	1080.147216796875	638.57666015625	-227.1111145019531	879.6046142578125	482.4369201660156	-150.2870025634766	846.0682373046875	504.9732971191406	-83.01625061035156	1018.675476074219	572.8923950195312	-283.8466796875	703.072998046875	481.0497741699219	-262.0284729003906	785.3855590820312	451.6451416015625	-187.2808380126953	765.1392822265625	465.1550598144531	-407.2752990722656	1667.622680664062	729.1338500976562	-272.3649597167969	1655.298461914062	560.8881225585938	-396.3709411621094	1674.49853515625	550.5623168945312	-272.7623901367188	1639.041748046875	731.889892578125	-454.7021789550781	954.74365234375	852.044677734375	-160.0323333740234	941.3228149414062	670.238037109375	-250.4996795654297	955.8075561523438	580.667236328125	-472.6964416503906	964.2314453125	730.7349853515625	-561.1153564453125	539.3387451171875	630.5639038085938	-550.1344604492188	660.974853515625	721.322021484375	-631.3109130859375	61.89348220825195	669.278076171875	-606.9546508789062	294.8370971679688	662.3535766601562	-673.14208984375	119.2475891113281	486.5071716308594	-611.803955078125	99.53352355957031	510.7799072265625	-694.818115234375	75.33309173583984	582.095947265625	-544.9486694335938	49.92304611206055	697.415283203125	-248.0275573730469	498.4857482910156	708.2986450195312	-215.4299468994141	757.9451293945312	627.4811401367188	-239.4120788574219	41.42137908935547	861.7998046875	-245.4024658203125	377.4216613769531	744.9844360351562	-422.9873352050781	43.14154052734375	742.82861328125	-405.2005004882812	47.62818145751953	810.5029296875	-317.8890075683594	48.38371276855469	764.7835693359375	-245.4698791503906	47.26903533935547	934.709228515625	
184	1.83	-186.3967895507812	1015.319458007812	760.9398803710938	-321.1397094726562	1007.243530273438	873.6240844726562	-252.7153930664062	1073.957763671875	816.5645141601562	-412.338623046875	1264.721069335938	616.7830810546875	-240.7693328857422	1207.02978515625	819.4949340820312	-277.1414489746094	1472.447387695312	768.02783203125	-394.1884765625	1379.438720703125	637.88037109375	-180.28173828125	1334.296508789062	772.060546875	-332.8381652832031	1437.867431640625	852.1851196289062	-453.4347229003906	1442.216430664062	830.6165771484375	-485.5234069824219	1325.956420898438	914.4970092773438	-505.9710693359375	1117.849365234375	955.17333984375	-405.3552551269531	1098.54052734375	919.5394287109375	-552.2775268554688	865.9916381835938	894.2179565429688	-531.1911010742188	867.0459594726562	975.4039916992188	-525.8214111328125	1009.650512695312	968.9337768554688	-547.8814086914062	682.6040649414062	895.5017700195312	-557.5103759765625	783.9853515625	966.8623046875	-575.384765625	783.9599609375	898.144775390625	-187.3383941650391	1431.785766601562	608.25048828125	-130.2722473144531	1363.999633789062	579.6381225585938	-76.88545227050781	1100.730712890625	589.1688842773438	-162.7974700927734	1078.50634765625	633.3853149414062	-230.0574340820312	878.0572509765625	476.8504333496094	-153.4922332763672	844.415771484375	499.9390258789062	-86.38998413085938	1017.046325683594	568.2141723632812	-286.967529296875	701.619873046875	475.0390014648438	-264.9855651855469	783.9007568359375	445.7396240234375	-190.2126007080078	763.5377197265625	459.8547973632812	-412.2100524902344	1665.9736328125	721.51953125	-275.4466247558594	1653.835205078125	554.7349853515625	-399.2677917480469	1673.232543945312	543.070068359375	-277.8255615234375	1637.207275390625	725.7056884765625	-461.3214111328125	952.9518432617188	843.0433349609375	-163.9579620361328	940.0713500976562	665.1644287109375	-253.2098083496094	954.5093383789062	574.45166015625	-477.5660095214844	962.4402465820312	721.3856811523438	-563.2424926757812	537.1484375	622.8767700195312	-554.9755859375	657.8480834960938	714.232666015625	-644.983642578125	61.46119689941406	639.2958984375	-615.0590209960938	294.3110656738281	643.3607177734375	-678.7262573242188	127.0531692504883	457.1565856933594	-618.6382446289062	105.2742080688477	483.2089538574219	-704.8175048828125	79.70697784423828	550.2821044921875	-559.904296875	46.73387908935547	670.2623901367188	-251.1475372314453	497.4926452636719	703.6423950195312	-218.3165740966797	756.677978515625	622.2029418945312	-239.707763671875	41.59698486328125	861.6950073242188	-248.1398162841797	376.5403137207031	741.394287109375	-423.0770263671875	42.7415657043457	742.493896484375	-405.5490112304688	47.43057632446289	810.3282470703125	-317.9903259277344	48.17547225952148	764.641357421875	-245.6197204589844	47.94837951660156	934.6124877929688	
185	1.84	-191.5193023681641	1013.650024414062	755.7325439453125	-328.0520629882812	1005.381469726562	866.3410034179688	-258.7602233886719	1072.459716796875	810.5194702148438	-416.1155090332031	1263.004516601562	608.9741821289062	-246.7222747802734	1205.533569335938	813.5418701171875	-282.6912536621094	1470.93310546875	761.4060668945312	-398.3269348144531	1377.746337890625	630.23388671875	-185.7070617675781	1332.875244140625	766.5255737304688	-338.9559631347656	1436.261474609375	845.0848388671875	-459.4180297851562	1440.463623046875	822.3951416015625	-491.9456481933594	1324.323852539062	906.2550659179688	-512.55712890625	1116.4521484375	947.5493774414062	-411.8202819824219	1097.02099609375	912.4395751953125	-558.4716796875	864.4059448242188	886.9193115234375	-537.9095458984375	865.7344360351562	968.24609375	-532.5502319335938	1008.278686523438	961.4395141601562	-554.1319580078125	681.0294799804688	888.861572265625	-564.2313232421875	782.6567993164062	959.8065795898438	-581.5985107421875	782.38232421875	890.9383544921875	-191.25341796875	1430.182739257812	602.4586791992188	-133.9801483154297	1362.323120117188	574.4005737304688	-80.45099639892578	1099.089233398438	584.4277954101562	-166.5833129882812	1076.841430664062	628.13818359375	-233.0276794433594	876.4364624023438	471.2501831054688	-156.6367034912109	842.7238159179688	494.8739318847656	-89.81275939941406	1015.402893066406	563.4740600585938	-290.0362854003906	700.0645141601562	469.0372619628906	-267.8835754394531	782.3204345703125	439.8577880859375	-193.1399688720703	761.8828125	454.5275573730469	-417.2047729492188	1664.309448242188	713.7514038085938	-278.5588684082031	1652.3056640625	548.5156860351562	-402.1592712402344	1671.919555664062	535.47705078125	-282.958251953125	1635.3505859375	719.42529296875	-467.9048767089844	951.1177368164062	833.91552734375	-167.8986968994141	938.76318359375	659.9732666015625	-255.9364624023438	953.205322265625	568.107421875	-482.3610534667969	960.6312866210938	711.9884643554688	-565.5734252929688	535.041015625	615.1195068359375	-559.7803344726562	654.6785278320312	707.1852416992188	-656.7656860351562	61.77957153320312	610.8157958984375	-622.267333984375	294.189208984375	625.1857299804688	-683.1160888671875	134.6341400146484	429.7305908203125	-624.2028198242188	111.0482177734375	457.3131408691406	-713.1286010742188	84.29377746582031	520.35009765625	-572.962158203125	44.62394714355469	644.2579345703125	-254.52880859375	496.4465026855469	698.6741943359375	-221.343505859375	755.370849609375	616.7510375976562	-240.0379638671875	41.8593864440918	861.596435546875	-251.1426544189453	375.6059265136719	737.548583984375	-423.2362670898438	42.32913589477539	742.170654296875	-405.9142456054688	47.25247955322266	810.1531372070312	-318.1616821289062	47.97272872924805	764.5228881835938	-245.8178405761719	48.74309158325195	934.506591796875	
186	1.85	-196.6209259033203	1011.955932617188	750.369384765625	-334.8856811523438	1003.497436523438	858.936767578125	-264.7419128417969	1070.96142578125	804.3995361328125	-419.9002380371094	1261.2861328125	601.1233520507812	-252.6864166259766	1204.065185546875	807.509033203125	-288.2694396972656	1469.429321289062	754.7159423828125	-402.4725646972656	1376.049926757812	622.5328979492188	-191.1466827392578	1331.473388671875	760.9118041992188	-345.1034240722656	1434.667602539062	837.9143676757812	-465.4192504882812	1438.718139648438	814.091796875	-498.4085388183594	1322.677490234375	897.9185791015625	-519.2562866210938	1115.05322265625	939.8153686523438	-418.4002380371094	1095.49267578125	905.3071899414062	-564.7510375976562	862.8228149414062	879.4620361328125	-544.7996215820312	864.4222412109375	960.935791015625	-539.4151611328125	1006.904296875	953.8125	-560.4663696289062	679.4644165039062	882.083984375	-571.09033203125	781.3328857421875	952.5936279296875	-587.8892822265625	780.8084716796875	883.5616455078125	-195.1993560791016	1428.596801757812	596.6129150390625	-137.7180633544922	1360.660766601562	569.105224609375	-84.09825897216797	1097.45458984375	579.6118774414062	-170.4270172119141	1075.184814453125	622.8319702148438	-236.0115661621094	874.7576904296875	465.6477661132812	-159.7120361328125	841.0164184570312	489.7934265136719	-93.29331970214844	1013.772521972656	558.6758422851562	-293.0347290039062	698.4168701171875	463.0693054199219	-270.6921691894531	780.6572875976562	434.0267333984375	-196.0417327880859	760.1932983398438	449.1896667480469	-422.2587280273438	1662.662353515625	705.8251342773438	-281.7071228027344	1650.735595703125	542.2350463867188	-405.0502624511719	1670.572021484375	527.7860717773438	-288.1597595214844	1633.510131835938	713.0491943359375	-474.4242553710938	949.2957153320312	824.6978149414062	-171.860107421875	937.41650390625	654.6552734375	-258.697021484375	951.9005126953125	561.6437377929688	-487.0977172851562	958.85498046875	702.5643920898438	-568.158447265625	533.1058349609375	607.1744995117188	-564.4736328125	651.5926513671875	700.0331420898438	-666.6390380859375	62.57572937011719	584.1555786132812	-628.61669921875	294.3504943847656	607.9197387695312	-686.4899291992188	141.63671875	404.384521484375	-628.6183471679688	116.5642318725586	433.2418212890625	-719.8482055664062	88.75286102294922	492.5590515136719	-584.0589599609375	43.37860870361328	619.7185668945312	-258.1148376464844	495.3667297363281	693.4539794921875	-224.5243072509766	754.0386962890625	611.1470947265625	-240.3860473632812	42.23245620727539	861.5109252929688	-254.3283386230469	374.6455993652344	733.4959106445312	-423.4403076171875	41.93057632446289	741.8599853515625	-406.2750854492188	47.10966110229492	809.9893188476562	-318.4068298339844	47.77146148681641	764.4212036132812	-246.0532073974609	49.68198776245117	934.3851318359375	
